<svg id="圖層_1" data-name="圖層 1" xmlns="http://www.w3.org/2000/svg" viewBox="0 0 230.02 205.02"><defs><style>.cls-1{fill:#fff;}</style></defs><path class="cls-1" d="M795,290H986.84c2.61,0,5.22,0,7.83,0H995a15.47,15.47,0,0,0,10.61-4.39A15.25,15.25,0,0,0,1010,275c-.17-3.88-1.45-7.9-4.39-10.61A15.63,15.63,0,0,0,995,260H803.16c-2.61,0-5.22,0-7.83,0H795a15.47,15.47,0,0,0-10.61,4.39A15.25,15.25,0,0,0,780,275c.17,3.88,1.45,7.9,4.39,10.61A15.63,15.63,0,0,0,795,290Z" transform="translate(-779.99 -259.99)"/><path class="cls-1" d="M795,377.5H986.84c2.61,0,5.22,0,7.83,0H995a15.47,15.47,0,0,0,10.61-4.39A15.25,15.25,0,0,0,1010,362.5c-.17-3.88-1.45-7.9-4.39-10.61A15.63,15.63,0,0,0,995,347.5H803.16c-2.61,0-5.22,0-7.83,0H795a15.47,15.47,0,0,0-10.61,4.39A15.25,15.25,0,0,0,780,362.5c.17,3.88,1.45,7.9,4.39,10.61A15.63,15.63,0,0,0,795,377.5Z" transform="translate(-779.99 -259.99)"/><path class="cls-1" d="M795,465H986.84c2.61,0,5.22,0,7.83,0H995a15.47,15.47,0,0,0,10.61-4.39A15.25,15.25,0,0,0,1010,450c-.17-3.88-1.45-7.9-4.39-10.61A15.63,15.63,0,0,0,995,435H803.16c-2.61,0-5.22,0-7.83,0H795a15.47,15.47,0,0,0-10.61,4.39A15.25,15.25,0,0,0,780,450c.17,3.88,1.45,7.9,4.39,10.61A15.63,15.63,0,0,0,795,465Z" transform="translate(-779.99 -259.99)"/></svg>